<svg xmlns="http://www.w3.org/2000/svg" width="1120" height="654" viewBox="0 0 1120 654">
<rect x="0.0" y="0.0" width="1120.0" height="654.0" rx="0.0" fill="#ffffff" stroke="none" />
<text x="32.0" y="38.0" font-size="24" fill="#1f2937" font-family="-apple-system,BlinkMacSystemFont,Segoe UI,Arial,sans-serif" text-anchor="start">SHAP 全局重要性</text>
<text x="32.0" y="66.0" font-size="13" fill="#6b7280" font-family="-apple-system,BlinkMacSystemFont,Segoe UI,Arial,sans-serif" text-anchor="start">validation + final_holdout：mean absolute SHAP，解释模型整体风险排序来源</text>
<line x1="470.0" y1="76.0" x2="980.0" y2="76.0" stroke="#e5e7eb" stroke-width="1.0" />
<text x="32.0" y="114.0" font-size="13" fill="#1f2937" font-family="-apple-system,BlinkMacSystemFont,Segoe UI,Arial,sans-serif" text-anchor="start">ext_source_mean | 外部综合评分/外部数据风险信号</text>
<rect x="470.0" y="96.0" width="500.0" height="18.0" rx="4.0" fill="#f1f5f9" stroke="none" />
<rect x="470.0" y="96.0" width="500.0" height="18.0" rx="4.0" fill="#7c3aed" stroke="none" />
<text x="980.0" y="110.0" font-size="12" fill="#1f2937" font-family="-apple-system,BlinkMacSystemFont,Segoe UI,Arial,sans-serif" text-anchor="start">0.4069</text>
<text x="32.0" y="148.0" font-size="13" fill="#1f2937" font-family="-apple-system,BlinkMacSystemFont,Segoe UI,Arial,sans-serif" text-anchor="start">employment_years | 就业稳定性相关风险</text>
<rect x="470.0" y="130.0" width="500.0" height="18.0" rx="4.0" fill="#f1f5f9" stroke="none" />
<rect x="470.0" y="130.0" width="142.9" height="18.0" rx="4.0" fill="#7c3aed" stroke="none" />
<text x="622.9" y="144.0" font-size="12" fill="#1f2937" font-family="-apple-system,BlinkMacSystemFont,Segoe UI,Arial,sans-serif" text-anchor="start">0.1163</text>
<text x="32.0" y="182.0" font-size="13" fill="#1f2937" font-family="-apple-system,BlinkMacSystemFont,Segoe UI,Arial,sans-serif" text-anchor="start">catfreq__CODE_GENDER | 模型识别的申请资料风险信号</text>
<rect x="470.0" y="164.0" width="500.0" height="18.0" rx="4.0" fill="#f1f5f9" stroke="none" />
<rect x="470.0" y="164.0" width="133.4" height="18.0" rx="4.0" fill="#7c3aed" stroke="none" />
<text x="613.4" y="178.0" font-size="12" fill="#1f2937" font-family="-apple-system,BlinkMacSystemFont,Segoe UI,Arial,sans-serif" text-anchor="start">0.1086</text>
<text x="32.0" y="216.0" font-size="13" fill="#1f2937" font-family="-apple-system,BlinkMacSystemFont,Segoe UI,Arial,sans-serif" text-anchor="start">AMT_ANNUITY | 模型识别的申请资料风险信号</text>
<rect x="470.0" y="198.0" width="500.0" height="18.0" rx="4.0" fill="#f1f5f9" stroke="none" />
<rect x="470.0" y="198.0" width="125.8" height="18.0" rx="4.0" fill="#7c3aed" stroke="none" />
<text x="605.8" y="212.0" font-size="12" fill="#1f2937" font-family="-apple-system,BlinkMacSystemFont,Segoe UI,Arial,sans-serif" text-anchor="start">0.1024</text>
<text x="32.0" y="250.0" font-size="13" fill="#1f2937" font-family="-apple-system,BlinkMacSystemFont,Segoe UI,Arial,sans-serif" text-anchor="start">credit_to_annuity_ratio | 模型识别的申请资料风险信号</text>
<rect x="470.0" y="232.0" width="500.0" height="18.0" rx="4.0" fill="#f1f5f9" stroke="none" />
<rect x="470.0" y="232.0" width="108.2" height="18.0" rx="4.0" fill="#7c3aed" stroke="none" />
<text x="588.2" y="246.0" font-size="12" fill="#1f2937" font-family="-apple-system,BlinkMacSystemFont,Segoe UI,Arial,sans-serif" text-anchor="start">0.0880</text>
<text x="32.0" y="284.0" font-size="13" fill="#1f2937" font-family="-apple-system,BlinkMacSystemFont,Segoe UI,Arial,sans-serif" text-anchor="start">goods_to_credit_ratio | 模型识别的申请资料风险信号</text>
<rect x="470.0" y="266.0" width="500.0" height="18.0" rx="4.0" fill="#f1f5f9" stroke="none" />
<rect x="470.0" y="266.0" width="107.4" height="18.0" rx="4.0" fill="#7c3aed" stroke="none" />
<text x="587.4" y="280.0" font-size="12" fill="#1f2937" font-family="-apple-system,BlinkMacSystemFont,Segoe UI,Arial,sans-serif" text-anchor="start">0.0874</text>
<text x="32.0" y="318.0" font-size="13" fill="#1f2937" font-family="-apple-system,BlinkMacSystemFont,Segoe UI,Arial,sans-serif" text-anchor="start">OWN_CAR_AGE | 年龄段相关风险</text>
<rect x="470.0" y="300.0" width="500.0" height="18.0" rx="4.0" fill="#f1f5f9" stroke="none" />
<rect x="470.0" y="300.0" width="91.1" height="18.0" rx="4.0" fill="#7c3aed" stroke="none" />
<text x="571.1" y="314.0" font-size="12" fill="#1f2937" font-family="-apple-system,BlinkMacSystemFont,Segoe UI,Arial,sans-serif" text-anchor="start">0.0741</text>
<text x="32.0" y="352.0" font-size="13" fill="#1f2937" font-family="-apple-system,BlinkMacSystemFont,Segoe UI,Arial,sans-serif" text-anchor="start">installment_payment_sum | 历史分期还款表现风险</text>
<rect x="470.0" y="334.0" width="500.0" height="18.0" rx="4.0" fill="#f1f5f9" stroke="none" />
<rect x="470.0" y="334.0" width="80.0" height="18.0" rx="4.0" fill="#7c3aed" stroke="none" />
<text x="560.0" y="348.0" font-size="12" fill="#1f2937" font-family="-apple-system,BlinkMacSystemFont,Segoe UI,Arial,sans-serif" text-anchor="start">0.0651</text>
<text x="32.0" y="386.0" font-size="13" fill="#1f2937" font-family="-apple-system,BlinkMacSystemFont,Segoe UI,Arial,sans-serif" text-anchor="start">EXT_SOURCE_1 | 外部综合评分/外部数据风险信号</text>
<rect x="470.0" y="368.0" width="500.0" height="18.0" rx="4.0" fill="#f1f5f9" stroke="none" />
<rect x="470.0" y="368.0" width="74.4" height="18.0" rx="4.0" fill="#7c3aed" stroke="none" />
<text x="554.4" y="382.0" font-size="12" fill="#1f2937" font-family="-apple-system,BlinkMacSystemFont,Segoe UI,Arial,sans-serif" text-anchor="start">0.0605</text>
<text x="32.0" y="420.0" font-size="13" fill="#1f2937" font-family="-apple-system,BlinkMacSystemFont,Segoe UI,Arial,sans-serif" text-anchor="start">DAYS_BIRTH | 年龄段相关风险</text>
<rect x="470.0" y="402.0" width="500.0" height="18.0" rx="4.0" fill="#f1f5f9" stroke="none" />
<rect x="470.0" y="402.0" width="74.3" height="18.0" rx="4.0" fill="#7c3aed" stroke="none" />
<text x="554.3" y="416.0" font-size="12" fill="#1f2937" font-family="-apple-system,BlinkMacSystemFont,Segoe UI,Arial,sans-serif" text-anchor="start">0.0605</text>
<text x="32.0" y="454.0" font-size="13" fill="#1f2937" font-family="-apple-system,BlinkMacSystemFont,Segoe UI,Arial,sans-serif" text-anchor="start">catoh__NAME_FAMILY_STATUS__01_Married | 模型识别</text>
<rect x="470.0" y="436.0" width="500.0" height="18.0" rx="4.0" fill="#f1f5f9" stroke="none" />
<rect x="470.0" y="436.0" width="72.6" height="18.0" rx="4.0" fill="#7c3aed" stroke="none" />
<text x="552.6" y="450.0" font-size="12" fill="#1f2937" font-family="-apple-system,BlinkMacSystemFont,Segoe UI,Arial,sans-serif" text-anchor="start">0.0591</text>
<text x="32.0" y="488.0" font-size="13" fill="#1f2937" font-family="-apple-system,BlinkMacSystemFont,Segoe UI,Arial,sans-serif" text-anchor="start">ext_source_max | 外部综合评分/外部数据风险信号</text>
<rect x="470.0" y="470.0" width="500.0" height="18.0" rx="4.0" fill="#f1f5f9" stroke="none" />
<rect x="470.0" y="470.0" width="69.7" height="18.0" rx="4.0" fill="#7c3aed" stroke="none" />
<text x="549.7" y="484.0" font-size="12" fill="#1f2937" font-family="-apple-system,BlinkMacSystemFont,Segoe UI,Arial,sans-serif" text-anchor="start">0.0567</text>
<text x="32.0" y="522.0" font-size="13" fill="#1f2937" font-family="-apple-system,BlinkMacSystemFont,Segoe UI,Arial,sans-serif" text-anchor="start">bureau_recent_24m_debt_to_credit_max | 征信负债相</text>
<rect x="470.0" y="504.0" width="500.0" height="18.0" rx="4.0" fill="#f1f5f9" stroke="none" />
<rect x="470.0" y="504.0" width="68.6" height="18.0" rx="4.0" fill="#7c3aed" stroke="none" />
<text x="548.6" y="518.0" font-size="12" fill="#1f2937" font-family="-apple-system,BlinkMacSystemFont,Segoe UI,Arial,sans-serif" text-anchor="start">0.0558</text>
<text x="32.0" y="556.0" font-size="13" fill="#1f2937" font-family="-apple-system,BlinkMacSystemFont,Segoe UI,Arial,sans-serif" text-anchor="start">catoh__NAME_EDUCATION_TYPE__02_Higher_educat</text>
<rect x="470.0" y="538.0" width="500.0" height="18.0" rx="4.0" fill="#f1f5f9" stroke="none" />
<rect x="470.0" y="538.0" width="63.6" height="18.0" rx="4.0" fill="#7c3aed" stroke="none" />
<text x="543.6" y="552.0" font-size="12" fill="#1f2937" font-family="-apple-system,BlinkMacSystemFont,Segoe UI,Arial,sans-serif" text-anchor="start">0.0517</text>
<text x="32.0" y="590.0" font-size="13" fill="#1f2937" font-family="-apple-system,BlinkMacSystemFont,Segoe UI,Arial,sans-serif" text-anchor="start">id_publish_years | 模型识别的申请资料风险信号</text>
<rect x="470.0" y="572.0" width="500.0" height="18.0" rx="4.0" fill="#f1f5f9" stroke="none" />
<rect x="470.0" y="572.0" width="60.7" height="18.0" rx="4.0" fill="#7c3aed" stroke="none" />
<text x="540.7" y="586.0" font-size="12" fill="#1f2937" font-family="-apple-system,BlinkMacSystemFont,Segoe UI,Arial,sans-serif" text-anchor="start">0.0494</text>
</svg>