<svg xmlns="http://www.w3.org/2000/svg" width="1120" height="552" viewBox="0 0 1120 552">
<rect x="0.0" y="0.0" width="1120.0" height="552.0" rx="0.0" fill="#ffffff" stroke="none" />
<text x="32.0" y="38.0" font-size="24" fill="#1f2937" font-family="-apple-system,BlinkMacSystemFont,Segoe UI,Arial,sans-serif" text-anchor="start">拒绝客群原因码覆盖</text>
<text x="32.0" y="66.0" font-size="13" fill="#6b7280" font-family="-apple-system,BlinkMacSystemFont,Segoe UI,Arial,sans-serif" text-anchor="start">final_holdout / decline：原因码在拒绝客群中的覆盖率，旁边数值为覆盖比例</text>
<line x1="500.0" y1="76.0" x2="980.0" y2="76.0" stroke="#e5e7eb" stroke-width="1.0" />
<text x="32.0" y="114.0" font-size="13" fill="#1f2937" font-family="-apple-system,BlinkMacSystemFont,Segoe UI,Arial,sans-serif" text-anchor="start">外部综合评分/外部数据风险信号 | ext_source_mean</text>
<rect x="500.0" y="96.0" width="470.0" height="18.0" rx="4.0" fill="#f1f5f9" stroke="none" />
<rect x="500.0" y="96.0" width="470.0" height="18.0" rx="4.0" fill="#0891b2" stroke="none" />
<text x="980.0" y="110.0" font-size="12" fill="#1f2937" font-family="-apple-system,BlinkMacSystemFont,Segoe UI,Arial,sans-serif" text-anchor="start">91.6%</text>
<text x="32.0" y="148.0" font-size="13" fill="#1f2937" font-family="-apple-system,BlinkMacSystemFont,Segoe UI,Arial,sans-serif" text-anchor="start">就业稳定性相关风险 | employment_years</text>
<rect x="500.0" y="130.0" width="470.0" height="18.0" rx="4.0" fill="#f1f5f9" stroke="none" />
<rect x="500.0" y="130.0" width="219.4" height="18.0" rx="4.0" fill="#0891b2" stroke="none" />
<text x="729.4" y="144.0" font-size="12" fill="#1f2937" font-family="-apple-system,BlinkMacSystemFont,Segoe UI,Arial,sans-serif" text-anchor="start">42.7%</text>
<text x="32.0" y="182.0" font-size="13" fill="#1f2937" font-family="-apple-system,BlinkMacSystemFont,Segoe UI,Arial,sans-serif" text-anchor="start">模型识别的申请资料风险信号 | catfreq__CODE_GENDER</text>
<rect x="500.0" y="164.0" width="470.0" height="18.0" rx="4.0" fill="#f1f5f9" stroke="none" />
<rect x="500.0" y="164.0" width="186.0" height="18.0" rx="4.0" fill="#0891b2" stroke="none" />
<text x="696.0" y="178.0" font-size="12" fill="#1f2937" font-family="-apple-system,BlinkMacSystemFont,Segoe UI,Arial,sans-serif" text-anchor="start">36.2%</text>
<text x="32.0" y="216.0" font-size="13" fill="#1f2937" font-family="-apple-system,BlinkMacSystemFont,Segoe UI,Arial,sans-serif" text-anchor="start">外部综合评分/外部数据风险信号 | ext_source_min</text>
<rect x="500.0" y="198.0" width="470.0" height="18.0" rx="4.0" fill="#f1f5f9" stroke="none" />
<rect x="500.0" y="198.0" width="157.4" height="18.0" rx="4.0" fill="#0891b2" stroke="none" />
<text x="667.4" y="212.0" font-size="12" fill="#1f2937" font-family="-apple-system,BlinkMacSystemFont,Segoe UI,Arial,sans-serif" text-anchor="start">30.7%</text>
<text x="32.0" y="250.0" font-size="13" fill="#1f2937" font-family="-apple-system,BlinkMacSystemFont,Segoe UI,Arial,sans-serif" text-anchor="start">模型识别的申请资料风险信号 | credit_to_annuity_ratio</text>
<rect x="500.0" y="232.0" width="470.0" height="18.0" rx="4.0" fill="#f1f5f9" stroke="none" />
<rect x="500.0" y="232.0" width="154.3" height="18.0" rx="4.0" fill="#0891b2" stroke="none" />
<text x="664.3" y="246.0" font-size="12" fill="#1f2937" font-family="-apple-system,BlinkMacSystemFont,Segoe UI,Arial,sans-serif" text-anchor="start">30.1%</text>
<text x="32.0" y="284.0" font-size="13" fill="#1f2937" font-family="-apple-system,BlinkMacSystemFont,Segoe UI,Arial,sans-serif" text-anchor="start">模型识别的申请资料风险信号 | goods_to_credit_ratio</text>
<rect x="500.0" y="266.0" width="470.0" height="18.0" rx="4.0" fill="#f1f5f9" stroke="none" />
<rect x="500.0" y="266.0" width="145.7" height="18.0" rx="4.0" fill="#0891b2" stroke="none" />
<text x="655.7" y="280.0" font-size="12" fill="#1f2937" font-family="-apple-system,BlinkMacSystemFont,Segoe UI,Arial,sans-serif" text-anchor="start">28.4%</text>
<text x="32.0" y="318.0" font-size="13" fill="#1f2937" font-family="-apple-system,BlinkMacSystemFont,Segoe UI,Arial,sans-serif" text-anchor="start">模型识别的申请资料风险信号 | AMT_ANNUITY</text>
<rect x="500.0" y="300.0" width="470.0" height="18.0" rx="4.0" fill="#f1f5f9" stroke="none" />
<rect x="500.0" y="300.0" width="126.6" height="18.0" rx="4.0" fill="#0891b2" stroke="none" />
<text x="636.6" y="314.0" font-size="12" fill="#1f2937" font-family="-apple-system,BlinkMacSystemFont,Segoe UI,Arial,sans-serif" text-anchor="start">24.7%</text>
<text x="32.0" y="352.0" font-size="13" fill="#1f2937" font-family="-apple-system,BlinkMacSystemFont,Segoe UI,Arial,sans-serif" text-anchor="start">历史分期还款表现风险 | installment_payment_sum</text>
<rect x="500.0" y="334.0" width="470.0" height="18.0" rx="4.0" fill="#f1f5f9" stroke="none" />
<rect x="500.0" y="334.0" width="102.6" height="18.0" rx="4.0" fill="#0891b2" stroke="none" />
<text x="612.6" y="348.0" font-size="12" fill="#1f2937" font-family="-apple-system,BlinkMacSystemFont,Segoe UI,Arial,sans-serif" text-anchor="start">20.0%</text>
<text x="32.0" y="386.0" font-size="13" fill="#1f2937" font-family="-apple-system,BlinkMacSystemFont,Segoe UI,Arial,sans-serif" text-anchor="start">征信负债相对授信额度偏高 | bureau_recent_24m_debt_to_cre</text>
<rect x="500.0" y="368.0" width="470.0" height="18.0" rx="4.0" fill="#f1f5f9" stroke="none" />
<rect x="500.0" y="368.0" width="96.4" height="18.0" rx="4.0" fill="#0891b2" stroke="none" />
<text x="606.4" y="382.0" font-size="12" fill="#1f2937" font-family="-apple-system,BlinkMacSystemFont,Segoe UI,Arial,sans-serif" text-anchor="start">18.8%</text>
<text x="32.0" y="420.0" font-size="13" fill="#1f2937" font-family="-apple-system,BlinkMacSystemFont,Segoe UI,Arial,sans-serif" text-anchor="start">近期信用卡额度使用率偏高 | credit_card_recent_6m_utiliza</text>
<rect x="500.0" y="402.0" width="470.0" height="18.0" rx="4.0" fill="#f1f5f9" stroke="none" />
<rect x="500.0" y="402.0" width="90.6" height="18.0" rx="4.0" fill="#0891b2" stroke="none" />
<text x="600.6" y="416.0" font-size="12" fill="#1f2937" font-family="-apple-system,BlinkMacSystemFont,Segoe UI,Arial,sans-serif" text-anchor="start">17.7%</text>
<text x="32.0" y="454.0" font-size="13" fill="#1f2937" font-family="-apple-system,BlinkMacSystemFont,Segoe UI,Arial,sans-serif" text-anchor="start">外部综合评分/外部数据风险信号 | EXT_SOURCE_3</text>
<rect x="500.0" y="436.0" width="470.0" height="18.0" rx="4.0" fill="#f1f5f9" stroke="none" />
<rect x="500.0" y="436.0" width="76.2" height="18.0" rx="4.0" fill="#0891b2" stroke="none" />
<text x="586.2" y="450.0" font-size="12" fill="#1f2937" font-family="-apple-system,BlinkMacSystemFont,Segoe UI,Arial,sans-serif" text-anchor="start">14.8%</text>
<text x="32.0" y="488.0" font-size="13" fill="#1f2937" font-family="-apple-system,BlinkMacSystemFont,Segoe UI,Arial,sans-serif" text-anchor="start">历史申请被拒记录较多 | previous_refusal_rate</text>
<rect x="500.0" y="470.0" width="470.0" height="18.0" rx="4.0" fill="#f1f5f9" stroke="none" />
<rect x="500.0" y="470.0" width="69.4" height="18.0" rx="4.0" fill="#0891b2" stroke="none" />
<text x="579.4" y="484.0" font-size="12" fill="#1f2937" font-family="-apple-system,BlinkMacSystemFont,Segoe UI,Arial,sans-serif" text-anchor="start">13.5%</text>
</svg>