<svg xmlns="http://www.w3.org/2000/svg" width="1120" height="560" viewBox="0 0 1120 560">
<rect x="0.0" y="0.0" width="1120.0" height="560.0" rx="0.0" fill="#ffffff" stroke="none" />
<text x="32.0" y="38.0" font-size="24" fill="#1f2937" font-family="-apple-system,BlinkMacSystemFont,Segoe UI,Arial,sans-serif" text-anchor="start">偿债能力与KYC画像分层</text>
<text x="32.0" y="66.0" font-size="13" fill="#6b7280" font-family="-apple-system,BlinkMacSystemFont,Segoe UI,Arial,sans-serif" text-anchor="start">final_holdout：按A卡策略动作对比还款压力、征信负债、信用卡使用、历史拒绝和外部评分风险</text>
<text x="32.0" y="88.0" font-size="12" fill="#6b7280" font-family="-apple-system,BlinkMacSystemFont,Segoe UI,Arial,sans-serif" text-anchor="start">该组件用于辅助人工审核和Agent摘要，不直接替代模型风险排序。</text>
<text x="210.0" y="106.0" font-size="12" fill="#475569" font-family="-apple-system,BlinkMacSystemFont,Segoe UI,Arial,sans-serif" text-anchor="middle">年金/收入</text>
<text x="360.0" y="106.0" font-size="12" fill="#475569" font-family="-apple-system,BlinkMacSystemFont,Segoe UI,Arial,sans-serif" text-anchor="middle">外部债务/授信</text>
<text x="510.0" y="106.0" font-size="12" fill="#475569" font-family="-apple-system,BlinkMacSystemFont,Segoe UI,Arial,sans-serif" text-anchor="middle">信用卡利用率</text>
<text x="660.0" y="106.0" font-size="12" fill="#475569" font-family="-apple-system,BlinkMacSystemFont,Segoe UI,Arial,sans-serif" text-anchor="middle">外部评分风险</text>
<line x1="32.0" y1="176.0" x2="1072.0" y2="176.0" stroke="#f1f5f9" stroke-width="1.0" />
<text x="32.0" y="128.0" font-size="16" fill="#1f2937" font-family="-apple-system,BlinkMacSystemFont,Segoe UI,Arial,sans-serif" text-anchor="start">自动通过</text>
<text x="32.0" y="150.0" font-size="12" fill="#6b7280" font-family="-apple-system,BlinkMacSystemFont,Segoe UI,Arial,sans-serif" text-anchor="start">坏账率 4.2% / 均分 631</text>
<rect x="166.0" y="118.0" width="88.0" height="18.0" rx="4.0" fill="#f1f5f9" stroke="none" />
<rect x="166.0" y="118.0" width="15.8" height="18.0" rx="4.0" fill="#dc2626" stroke="none" />
<text x="210.0" y="154.0" font-size="12" fill="#1f2937" font-family="-apple-system,BlinkMacSystemFont,Segoe UI,Arial,sans-serif" text-anchor="middle">17.9%</text>
<rect x="316.0" y="118.0" width="88.0" height="18.0" rx="4.0" fill="#f1f5f9" stroke="none" />
<rect x="316.0" y="118.0" width="37.1" height="18.0" rx="4.0" fill="#d97706" stroke="none" />
<text x="360.0" y="154.0" font-size="12" fill="#1f2937" font-family="-apple-system,BlinkMacSystemFont,Segoe UI,Arial,sans-serif" text-anchor="middle">42.1%</text>
<rect x="466.0" y="118.0" width="88.0" height="18.0" rx="4.0" fill="#f1f5f9" stroke="none" />
<rect x="466.0" y="118.0" width="30.7" height="18.0" rx="4.0" fill="#0891b2" stroke="none" />
<text x="510.0" y="154.0" font-size="12" fill="#1f2937" font-family="-apple-system,BlinkMacSystemFont,Segoe UI,Arial,sans-serif" text-anchor="middle">34.9%</text>
<rect x="616.0" y="118.0" width="88.0" height="18.0" rx="4.0" fill="#f1f5f9" stroke="none" />
<rect x="616.0" y="118.0" width="39.5" height="18.0" rx="4.0" fill="#2563eb" stroke="none" />
<text x="660.0" y="154.0" font-size="12" fill="#1f2937" font-family="-apple-system,BlinkMacSystemFont,Segoe UI,Arial,sans-serif" text-anchor="middle">44.9%</text>
<line x1="32.0" y1="268.0" x2="1072.0" y2="268.0" stroke="#f1f5f9" stroke-width="1.0" />
<text x="32.0" y="220.0" font-size="16" fill="#1f2937" font-family="-apple-system,BlinkMacSystemFont,Segoe UI,Arial,sans-serif" text-anchor="start">人工复核</text>
<text x="32.0" y="242.0" font-size="12" fill="#6b7280" font-family="-apple-system,BlinkMacSystemFont,Segoe UI,Arial,sans-serif" text-anchor="start">坏账率 16.0% / 均分 511</text>
<rect x="166.0" y="210.0" width="88.0" height="18.0" rx="4.0" fill="#f1f5f9" stroke="none" />
<rect x="166.0" y="210.0" width="16.0" height="18.0" rx="4.0" fill="#dc2626" stroke="none" />
<text x="210.0" y="246.0" font-size="12" fill="#1f2937" font-family="-apple-system,BlinkMacSystemFont,Segoe UI,Arial,sans-serif" text-anchor="middle">18.2%</text>
<rect x="316.0" y="210.0" width="88.0" height="18.0" rx="4.0" fill="#f1f5f9" stroke="none" />
<rect x="316.0" y="210.0" width="49.3" height="18.0" rx="4.0" fill="#d97706" stroke="none" />
<text x="360.0" y="246.0" font-size="12" fill="#1f2937" font-family="-apple-system,BlinkMacSystemFont,Segoe UI,Arial,sans-serif" text-anchor="middle">56.1%</text>
<rect x="466.0" y="210.0" width="88.0" height="18.0" rx="4.0" fill="#f1f5f9" stroke="none" />
<rect x="466.0" y="210.0" width="58.3" height="18.0" rx="4.0" fill="#0891b2" stroke="none" />
<text x="510.0" y="246.0" font-size="12" fill="#1f2937" font-family="-apple-system,BlinkMacSystemFont,Segoe UI,Arial,sans-serif" text-anchor="middle">66.3%</text>
<rect x="616.0" y="210.0" width="88.0" height="18.0" rx="4.0" fill="#f1f5f9" stroke="none" />
<rect x="616.0" y="210.0" width="53.8" height="18.0" rx="4.0" fill="#2563eb" stroke="none" />
<text x="660.0" y="246.0" font-size="12" fill="#1f2937" font-family="-apple-system,BlinkMacSystemFont,Segoe UI,Arial,sans-serif" text-anchor="middle">61.1%</text>
<line x1="32.0" y1="360.0" x2="1072.0" y2="360.0" stroke="#f1f5f9" stroke-width="1.0" />
<text x="32.0" y="312.0" font-size="16" fill="#1f2937" font-family="-apple-system,BlinkMacSystemFont,Segoe UI,Arial,sans-serif" text-anchor="start">直接拒绝</text>
<text x="32.0" y="334.0" font-size="12" fill="#6b7280" font-family="-apple-system,BlinkMacSystemFont,Segoe UI,Arial,sans-serif" text-anchor="start">坏账率 30.7% / 均分 444</text>
<rect x="166.0" y="302.0" width="88.0" height="18.0" rx="4.0" fill="#f1f5f9" stroke="none" />
<rect x="166.0" y="302.0" width="16.6" height="18.0" rx="4.0" fill="#dc2626" stroke="none" />
<text x="210.0" y="338.0" font-size="12" fill="#1f2937" font-family="-apple-system,BlinkMacSystemFont,Segoe UI,Arial,sans-serif" text-anchor="middle">18.9%</text>
<rect x="316.0" y="302.0" width="88.0" height="18.0" rx="4.0" fill="#f1f5f9" stroke="none" />
<rect x="316.0" y="302.0" width="55.3" height="18.0" rx="4.0" fill="#d97706" stroke="none" />
<text x="360.0" y="338.0" font-size="12" fill="#1f2937" font-family="-apple-system,BlinkMacSystemFont,Segoe UI,Arial,sans-serif" text-anchor="middle">62.8%</text>
<rect x="466.0" y="302.0" width="88.0" height="18.0" rx="4.0" fill="#f1f5f9" stroke="none" />
<rect x="466.0" y="302.0" width="72.5" height="18.0" rx="4.0" fill="#0891b2" stroke="none" />
<text x="510.0" y="338.0" font-size="12" fill="#1f2937" font-family="-apple-system,BlinkMacSystemFont,Segoe UI,Arial,sans-serif" text-anchor="middle">82.4%</text>
<rect x="616.0" y="302.0" width="88.0" height="18.0" rx="4.0" fill="#f1f5f9" stroke="none" />
<rect x="616.0" y="302.0" width="61.2" height="18.0" rx="4.0" fill="#2563eb" stroke="none" />
<text x="660.0" y="338.0" font-size="12" fill="#1f2937" font-family="-apple-system,BlinkMacSystemFont,Segoe UI,Arial,sans-serif" text-anchor="middle">69.6%</text>
<text x="32.0" y="505.0" font-size="12" fill="#6b7280" font-family="-apple-system,BlinkMacSystemFont,Segoe UI,Arial,sans-serif" text-anchor="start">外部评分风险 = 1 - ext_source_mean；Home Credit无真实流水/OCR，本页将KYC定义为申请画像与偿债能力代理指标。</text>
</svg>